<svg width="12" height="40" viewBox="0 0 12 40" fill="none" xmlns="http://www.w3.org/2000/svg">
<path d="M5.99382 0.000713611C6.36419 -0.0106962 6.73456 0.1148 7.00616 0.371498L11.6049 4.6441C12.1358 5.13468 12.1296 5.92759 11.5988 6.41817C11.0679 6.90875 10.2099 6.90305 9.679 6.41246L7.39505 4.29613L7.39505 38.745C7.39505 39.441 6.79012 40 6.03703 40C5.28395 40 4.67901 39.441 4.67901 38.745L4.67901 4.21056L2.31481 6.39535C1.78395 6.88593 0.925925 6.88593 0.395061 6.39535C0.12963 6.15006 4.13757e-07 5.83062 3.99545e-07 5.50546C3.85581e-07 5.18602 0.12963 4.86087 0.395061 4.61558L4.99382 0.365795C5.2716 0.114804 5.6358 -0.00498935 5.99382 0.000713611Z" fill="white"/>
</svg>
