<svg width="640" height="512" viewBox="0 0 640 512" fill="none" xmlns="http://www.w3.org/2000/svg">
<path d="M496.616 372.639L566.628 302.627C583.527 285.727 576.57 256.856 553.792 249.535L512 236.102V96C512 78.327 497.673 64 480 64H416V24C416 10.745 405.255 0 392 0H248C234.745 0 224 10.745 224 24V64H160C142.327 64 128 78.327 128 96V236.102L86.208 249.535C63.455 256.848 56.454 285.708 73.372 302.627L143.384 372.639C125.828 416.287 85.587 448 24 448C10.745 448 0 458.745 0 472V488C0 501.255 10.745 512 24 512C85.023 512 131.499 491.39 167.258 452.604C181.677 487.432 216.021 512 256 512H384C423.979 512 458.323 487.432 472.742 452.604C508.495 491.384 554.968 512 616 512C629.255 512 640 501.255 640 488V472C640 458.745 629.255 448 616 448C555.183 448 514.458 416.999 496.616 372.639ZM192 128H448V215.531L329.792 177.536C323.424 175.489 316.576 175.489 310.208 177.536L192 215.531V128Z" fill="white"/>
</svg>
